<?xml version="1.0" encoding="UTF-8" standalone="no"?>
<svg
   xmlns:dc="http://purl.org/dc/elements/1.1/"
   xmlns:cc="http://creativecommons.org/ns#"
   xmlns:rdf="http://www.w3.org/1999/02/22-rdf-syntax-ns#"
   xmlns:svg="http://www.w3.org/2000/svg"
   xmlns="http://www.w3.org/2000/svg"
   xmlns:sodipodi="http://sodipodi.sourceforge.net/DTD/sodipodi-0.dtd"
   xmlns:inkscape="http://www.inkscape.org/namespaces/inkscape"
   id="svg6169"
   version="1.1"
   viewBox="0 0 71.858801 70.847587"
   height="70.847588mm"
   width="71.858803mm"
   sodipodi:docname="synlogo.svg"
   inkscape:version="0.92.4 (5da689c313, 2019-01-14)">
  <sodipodi:namedview
     pagecolor="#060000"
     bordercolor="#666666"
     borderopacity="1"
     objecttolerance="10"
     gridtolerance="10"
     guidetolerance="10"
     inkscape:pageopacity="0"
     inkscape:pageshadow="2"
     inkscape:window-width="3840"
     inkscape:window-height="2066"
     id="namedview13"
     showgrid="false"
     inkscape:zoom="3.3638608"
     inkscape:cx="278.27261"
     inkscape:cy="25.330398"
     inkscape:window-x="2149"
     inkscape:window-y="962"
     inkscape:window-maximized="1"
     inkscape:current-layer="layer1"
     fit-margin-top="0"
     fit-margin-left="0"
     fit-margin-right="0"
     fit-margin-bottom="0" />
  <defs
     id="defs6163" />
  <metadata
     id="metadata6166">
    <rdf:RDF>
      <cc:Work
         rdf:about="">
        <dc:format>image/svg+xml</dc:format>
        <dc:type
           rdf:resource="http://purl.org/dc/dcmitype/StillImage" />
        <dc:title></dc:title>
      </cc:Work>
    </rdf:RDF>
  </metadata>
  <g
     id="layer1"
     transform="translate(1234.7572,65.76564)">
    <g
       transform="matrix(0.19735106,0,0,0.19735106,-1032.7197,-68.056519)"
       id="g6725">
      <path
         id="path6727"
         style="fill:#ffffff;stroke-width:0.08466666"
         d="m -844.64173,317.79974 c -4.01733,-0.1591 -10.85693,-0.76239 -14.26633,-1.25834 -6.0808,-0.88456 -12.85316,-2.3736 -18.33033,-4.03031 -3.549,-1.07348 -9.84106,-3.35933 -13.21631,-4.80136 -3.61796,-1.54573 -7.92585,-3.63352 -11.29469,-5.47388 -0.81492,-0.44518 -1.56032,-0.82978 -1.65644,-0.85467 -0.20811,-0.0539 -47.87356,-47.69735 -47.87356,-47.85148 0,-0.0585 -0.46239,-0.95366 -1.02754,-1.98931 -6.39705,-11.72283 -10.98042,-24.64717 -13.32188,-37.5654 -1.01583,-5.60452 -1.4255,-8.83597 -1.77702,-14.01693 -0.0727,-1.07104 -0.17646,-2.32834 -0.23064,-2.794 -0.0542,-0.46567 -0.10775,-1.91347 -0.11904,-3.21734 -0.0113,-1.30386 -0.0435,-3.17041 -0.0716,-4.14787 -0.0301,-1.0473 -0.0159,-2.02096 0.0345,-2.37067 0.0471,-0.3264 0.12316,-1.43166 0.16906,-2.45612 0.0459,-1.02447 0.14284,-2.64372 0.21541,-3.59834 0.17632,-2.31925 1.06638,-9.68616 1.43212,-11.85333 1.80584,-10.70057 4.99153,-21.16167 9.48631,-31.15089 0.70496,-1.56671 3.1736,-6.52146 4.07766,-8.18417 0.48329,-0.88884 0.8787,-1.66992 0.8787,-1.73573 0,-0.15109 48.43213,-48.591207 48.58319,-48.591207 0.0613,0 0.67086,-0.306639 1.35461,-0.681419 6.40618,-3.511357 15.31628,-7.321479 22.05374,-9.43058 9.45217,-2.958914 18.09996,-4.720166 27.02612,-5.504273 5.65547,-0.496796 7.57054,-0.576574 12.65767,-0.527288 5.20737,0.05045 6.69854,0.131148 12.065,0.65292 7.90866,0.768947 14.67423,2.062278 22.35199,4.272892 8.99364,2.589482 19.01993,6.760004 26.67,11.093614 0.51224,0.29017 1.08374,0.590498 1.27,0.667395 0.2573,0.106222 5.95701,5.757448 23.72265,23.520866 13.42472,13.42305 23.40532,23.46606 23.43408,23.58061 0.0275,0.10975 0.4161,0.85506 0.86346,1.65624 5.18126,9.27916 9.46269,20.16768 12.12488,30.83602 1.60956,6.45004 2.42633,11.23023 3.09587,18.11867 0.79944,8.22502 0.90517,12.76337 0.46549,19.98133 -0.17079,2.80372 -0.66756,7.98524 -0.97408,10.16 -1.68211,11.93473 -4.84717,23.01779 -9.74042,34.10794 -1.25657,2.84792 -3.42968,7.22027 -4.94087,9.94115 -0.65343,1.1765 -1.18806,2.18599 -1.18806,2.2433 0,0.12492 -46.06252,46.20594 -46.1874,46.20594 -0.0477,0 -0.50505,0.23356 -1.01621,0.51902 -6.37455,3.55992 -12.0779,6.21837 -18.39377,8.57372 -8.62236,3.21551 -17.74962,5.53272 -26.85861,6.81882 -3.31232,0.46766 -8.9896,0.96058 -12.75745,1.10763 -1.80877,0.0706 -7.26478,0.0872 -8.79022,0.0268 z m 9.271,-11.92037 c 1.54608,-0.0351 4.11069,-0.22196 7.112,-0.51809 10.72513,-1.05821 22.52423,-4.1484 33.01693,-8.64713 11.63255,-4.98745 22.24782,-11.77276 31.62607,-20.21547 1.6606,-1.49495 4.6857,-4.38305 5.74816,-5.48784 2.44919,-2.54677 6.33428,-7.0217 7.14742,-8.23257 0.18673,-0.27805 0.53124,-0.73415 0.76558,-1.01355 0.23434,-0.2794 0.95393,-1.1938 1.5991,-2.032 5.68551,-7.38664 10.8277,-16.50689 14.61907,-25.92861 3.34466,-8.31158 5.59831,-16.48735 6.98416,-25.33705 0.50119,-3.20049 1.02177,-8.34552 1.1822,-11.684 0.11106,-2.3114 0.12234,-10.04768 0.0175,-11.98183 -0.10946,-2.01854 -0.69687,-8.12134 -0.98186,-10.20084 -2.13151,-15.55329 -7.90159,-31.37862 -16.40761,-45.00033 -1.42656,-2.28453 -3.80095,-5.79769 -3.96659,-5.86899 -0.0751,-0.0323 -0.73951,-0.92921 -1.29714,-1.75101 -1.33515,-1.96769 -4.73268,-6.10694 -7.57379,-9.22725 -5.11502,-5.61768 -11.44469,-11.2164 -17.86916,-15.805632 -14.20282,-10.145587 -30.9996,-17.088264 -48.19444,-19.920394 -2.51561,-0.414341 -3.9612,-0.593402 -7.51623,-0.931017 -5.4755,-0.519999 -6.59992,-0.569126 -12.02843,-0.52553 -4.96037,0.03984 -5.50729,0.06406 -9.94257,0.440362 -2.63889,0.223892 -2.82284,0.244447 -5.334,0.596019 -7.00241,0.980368 -13.96029,2.621849 -20.94119,4.940376 -5.78989,1.922967 -13.59449,5.372707 -19.0638,8.426469 -18.8408,10.519657 -34.26368,25.930697 -44.69859,44.664267 -0.95756,1.71908 -3.68442,7.139 -4.43011,8.80533 -4.04629,9.04177 -6.94274,18.58311 -8.52641,28.08728 -0.37098,2.22644 -1.15935,8.94914 -1.36779,11.66372 -0.30409,3.96026 -0.27876,11.21551 0.055,15.748 0.39035,5.30147 0.79315,8.39652 1.78502,13.716 2.6394,14.15518 8.4942,28.62224 16.65011,41.14194 6.51883,10.00671 14.33072,18.65757 24.02279,26.60278 7.72103,6.3294 17.14048,12.01318 26.88828,16.22461 1.93152,0.83449 6.3079,2.51089 8.80719,3.37365 6.24653,2.15631 14.32568,4.06167 20.94652,4.93995 2.09715,0.27819 8.93704,0.91045 10.541,0.97437 1.52425,0.0607 7.21723,0.0415 10.62567,-0.036 z m -7.40833,64.22511 c -2.68365,-0.49747 -4.97736,-1.52968 -6.90034,-3.10527 -0.30268,-0.248 -38.00761,-37.91467 -83.78874,-83.7037 -81.36566,-81.37968 -83.25196,-83.27355 -83.84086,-84.17548 -1.6506,-2.52826 -2.5684,-5.45528 -2.5779,-8.22131 -0.011,-3.30769 1.3117,-6.87224 3.5196,-9.48266 0.8664,-1.02433 166.15697,-166.26948 166.85724,-166.811402 2.34581,-1.815362 5.1457,-2.871369 8.13951,-3.069913 3.27772,-0.217371 6.34529,0.630191 9.238,2.552434 l 1.03749,0.689425 82.74895,82.727054 c 45.51193,45.499892 83.09147,83.108062 83.5101,83.573732 2.39704,2.66637 3.81968,6.31721 3.82713,9.82133 0.006,2.70047 -0.95504,5.76257 -2.5797,8.22175 -0.58734,0.88902 -1.80627,2.11969 -33.82821,34.15392 -95.67682,95.7135 -133.70323,133.68773 -134.31327,134.12898 -1.75801,1.27157 -3.73563,2.14891 -5.88434,2.61049 -1.23157,0.26457 -3.96734,0.31257 -5.16466,0.0906 z m 3.77907,-8.26672 c 0.70602,-0.18294 1.43451,-0.49343 2.01622,-0.8593 0.52131,-0.32788 59.86485,-59.58148 60.08298,-59.99191 0.0681,-0.12805 0.0933,-0.23283 0.0561,-0.23283 -0.0372,0 -0.48585,0.23356 -0.99701,0.51902 -6.37455,3.55992 -12.0779,6.21837 -18.39377,8.57372 -10.49544,3.91403 -21.50545,6.44856 -32.19261,7.41084 -5.64244,0.50804 -8.76313,0.63722 -13.75834,0.56951 -4.56461,-0.0619 -5.83411,-0.1344 -10.668,-0.60946 -5.5499,-0.54544 -8.74828,-1.00921 -13.12333,-1.90289 -7.06711,-1.4436 -12.55389,-3.03085 -19.48164,-5.63577 -5.82911,-2.19182 -10.96774,-4.53917 -16.29002,-7.44136 -0.81492,-0.44437 -1.5511,-0.83006 -1.63597,-0.85709 -0.14416,-0.0459 -0.14591,-0.0334 -0.0266,0.19133 0.22047,0.4152 58.96648,59.07493 59.49427,59.40689 0.76451,0.48085 1.81159,0.86921 2.74729,1.01895 0.4433,0.0709 1.6124,-0.015 2.17041,-0.15965 z m 1.78384,-55.88952 c 0.34735,-0.0328 0.57732,-0.0948 0.59267,-0.15971 0.0138,-0.0584 3.34089,-3.47247 7.39355,-7.58695 4.05266,-4.11447 10.85122,-11.02416 15.10792,-15.35486 9.41296,-9.5766 9.62829,-9.79556 22.00153,-22.37316 5.46285,-5.55308 9.94553,-10.0965 9.96152,-10.0965 0.0355,0 5.46039,1.82171 10.45756,3.51171 3.79914,1.28483 8.06048,2.72376 14.30867,4.83162 1.97908,0.66765 4.49177,1.51852 5.58377,1.89082 1.092,0.37229 2.02074,0.65509 2.06388,0.62843 0.12002,-0.0742 -0.0207,0.13922 -0.53566,0.8123 -0.30236,0.39521 -0.5102,0.59469 -0.59266,0.56883 -0.0698,-0.0219 -2.05105,-0.69439 -4.40267,-1.49441 -2.35161,-0.80002 -5.83776,-1.98072 -7.747,-2.62376 -3.3481,-1.12767 -5.57525,-1.87942 -14.77433,-4.98695 -2.35162,-0.79439 -4.3019,-1.44456 -4.33395,-1.44481 -0.0321,0 -4.56596,4.58107 -10.07533,10.18072 -12.33401,12.53611 -13.11723,13.33262 -22.08322,22.45783 -3.98061,4.0513 -9.69413,9.86155 -12.69671,12.91166 -7.85657,7.98096 -7.79145,7.91388 -7.79145,8.0258 0,0.0652 -0.1609,0.10688 -0.4445,0.11512 l -0.4445,0.0129 0.55033,0.0539 c 0.58445,0.0573 4.2005,-0.19308 7.239,-0.50116 10.4751,-1.0621 22.30632,-4.18467 32.63593,-8.61348 11.63255,-4.98745 22.24782,-11.77276 31.62607,-20.21547 1.6606,-1.49495 4.6857,-4.38305 5.74816,-5.48784 2.44919,-2.54677 6.33428,-7.0217 7.14742,-8.23257 0.18673,-0.27805 0.53124,-0.73415 0.76558,-1.01355 0.23434,-0.2794 0.95393,-1.1938 1.5991,-2.032 5.68551,-7.38664 10.8277,-16.50689 14.61907,-25.92861 3.34466,-8.31158 5.59831,-16.48735 6.98416,-25.33705 0.70359,-4.4929 1.38105,-12.36117 1.20284,-13.97 -0.0658,-0.59357 -0.0711,-0.606 -0.0818,-0.1905 -0.008,0.29654 -0.0472,0.4445 -0.11888,0.4445 -0.0591,0 -3.74524,3.70322 -8.1915,8.22938 -4.44627,4.52616 -10.54157,10.72714 -13.54512,13.77995 -3.00355,3.05282 -9.86084,10.02713 -15.23844,15.49846 -14.12215,14.36833 -15.68501,15.95346 -15.78584,16.01078 -0.11188,0.0636 -1.16506,-0.27776 -1.16638,-0.37806 -10e-4,-0.0748 2.67267,-2.80334 24.48271,-24.98518 7.05305,-7.17328 16.00493,-16.28083 19.89308,-20.239 3.88815,-3.95817 7.66153,-7.79871 8.38528,-8.53453 l 1.31593,-1.33788 0.0493,0.49121 c 0.0857,0.85418 0.08,-6.88707 -0.006,-8.52687 -0.10299,-1.95807 -0.6909,-8.07085 -0.97706,-10.15893 -2.13151,-15.55329 -7.9016,-31.37862 -16.40761,-45.00033 -1.42656,-2.28453 -3.80095,-5.79769 -3.9666,-5.86899 -0.0751,-0.0323 -0.73951,-0.92921 -1.29713,-1.75101 -1.33516,-1.96769 -4.73269,-6.10694 -7.5738,-9.22725 -5.11499,-5.61768 -11.44466,-11.2164 -17.86913,-15.805632 -14.20282,-10.145587 -30.9996,-17.088264 -48.19444,-19.920394 -2.52741,-0.416284 -3.96735,-0.594228 -7.55856,-0.934064 -4.66985,-0.441907 -6.61536,-0.551742 -9.77853,-0.55205 l -2.83587,-2.77e-4 8.38153,8.362146 c 4.60985,4.599181 13.0115,12.971649 18.67034,18.605501 22.12121,22.02348 29.03813,28.94671 28.97625,29.00266 -0.14653,0.13248 -0.95458,0.34069 -1.0687,0.27536 -0.11697,-0.067 -28.3487,-28.16511 -47.06672,-46.844029 -5.0184,-5.007918 -9.16177,-9.118004 -9.2075,-9.133526 -0.0457,-0.01552 -0.0831,-0.088 -0.0831,-0.161074 0,-0.117508 -0.16378,-0.126739 -1.41817,-0.07994 -2.23485,0.08339 -8.06837,0.530967 -9.67317,0.742182 -8.51446,1.120633 -15.41743,2.685687 -23.10019,5.237318 -5.78989,1.922967 -13.59449,5.372707 -19.0638,8.426469 -18.8408,10.51966 -34.26368,25.9307 -44.69859,44.66427 -0.95756,1.71908 -3.68442,7.139 -4.43011,8.80533 -4.04629,9.04177 -6.94274,18.58311 -8.52641,28.08728 -0.37098,2.22644 -1.15935,8.94914 -1.36779,11.66372 -0.30409,3.96026 -0.27876,11.21551 0.055,15.748 0.39035,5.30147 0.79315,8.39652 1.78502,13.716 2.6394,14.15518 8.4942,28.62224 16.65011,41.14194 6.51883,10.00671 14.33072,18.65757 24.02279,26.60278 7.72103,6.3294 17.14048,12.01318 26.88828,16.22461 1.93152,0.83449 6.3079,2.51089 8.80719,3.37365 6.24653,2.15631 14.32568,4.06167 20.94652,4.93995 2.13334,0.28299 8.94676,0.91064 10.541,0.97103 2.16692,0.0821 8.03826,0.1063 8.78025,0.0362 z m 49.13175,-55.90808 c -1.17307,-0.40432 -11.5832,-3.92499 -18.288,-6.18494 -1.90923,-0.64353 -5.39538,-1.82347 -7.747,-2.62208 -2.35161,-0.79862 -5.83776,-1.97875 -7.747,-2.62253 -1.90923,-0.64378 -6.53838,-2.20704 -10.287,-3.47392 -3.74861,-1.26687 -8.37776,-2.83024 -10.287,-3.47414 -1.90923,-0.6439 -5.39538,-1.82354 -7.747,-2.62142 -2.35161,-0.79787 -5.89491,-1.9968 -7.874,-2.66429 -1.97908,-0.66748 -6.60823,-2.23111 -10.287,-3.47472 -3.67876,-1.24361 -8.25076,-2.78769 -10.15999,-3.43128 -1.90924,-0.64359 -5.45254,-1.84152 -7.874,-2.66207 -2.42147,-0.82054 -5.96477,-2.01988 -7.874,-2.66521 -13.3355,-4.50745 -17.25681,-5.83204 -20.32,-6.86401 -1.90924,-0.64321 -5.45254,-1.84145 -7.874,-2.66278 -2.42147,-0.82131 -5.96477,-2.02086 -7.874,-2.66567 -1.90923,-0.64479 -6.48123,-2.18906 -10.16,-3.43171 -3.67877,-1.24264 -8.62224,-2.91109 -10.9855,-3.70766 l -4.29683,-1.44833 v -0.87548 -0.87549 l 0.18776,0.10049 c 0.10326,0.0553 1.82729,0.65095 3.83116,1.32375 2.00388,0.6728 5.16741,1.73796 7.03008,2.36702 1.86266,0.62906 5.00591,1.69 6.985,2.35764 1.97908,0.66764 5.57953,1.88554 8.00099,2.70645 4.41673,1.49733 7.16619,2.42741 14.01234,4.74004 7.23316,2.44336 10.50727,3.5488 14.05466,4.74527 1.97909,0.66751 5.52239,1.86636 7.874,2.6641 2.35162,0.79774 5.66632,1.91911 7.366,2.49193 1.69969,0.57282 6.27169,2.11791 10.16,3.43355 3.88832,1.31563 8.68892,2.9374 10.668,3.60393 1.97908,0.66653 5.52238,1.86409 7.874,2.66125 2.35162,0.79715 5.66632,1.91894 7.366,2.49287 1.69968,0.57393 4.69053,1.58463 6.64633,2.24601 4.8527,1.641 9.88278,3.34025 14.18167,4.79083 1.97908,0.66781 5.52238,1.86587 7.874,2.66238 5.97589,2.02407 9.61241,3.25428 13.88533,4.69733 2.02565,0.68411 5.26415,1.77784 7.19667,2.43051 1.93251,0.65268 5.13291,1.73321 7.112,2.40119 6.08927,2.05523 7.91344,2.67715 7.98847,2.72351 0.12034,0.0744 -1.06479,1.20995 -1.2552,1.20274 -0.0944,-0.004 -0.70501,-0.19036 -1.35694,-0.41506 z m 50.75766,-68.69237 c -28.13934,-28.08703 -45.83345,-45.65363 -46.00864,-45.67707 -0.10415,-0.0139 -2.18684,0.63899 -4.62819,1.45096 -2.44136,0.81197 -6.95343,2.30357 -10.02683,3.31466 -3.0734,1.01111 -7.112,2.34543 -8.97467,2.96518 -1.86266,0.61975 -4.85351,1.60919 -6.64633,2.19877 -1.79281,0.58958 -5.88856,1.94259 -9.10166,3.00669 -3.2131,1.06411 -11.57605,3.82618 -18.58434,6.13795 -7.00828,2.31178 -15.14263,4.99825 -18.07633,5.96993 -2.9337,0.97169 -7.02945,2.32443 -9.10167,3.0061 -2.07221,0.68166 -5.29166,1.7473 -7.15433,2.36808 -1.86266,0.62077 -5.90126,1.95441 -8.97466,2.96363 -3.0734,1.00922 -7.16915,2.36282 -9.10167,3.00801 -1.93252,0.64518 -5.97112,1.9804 -8.97467,2.96715 -3.00355,0.98676 -7.04215,2.31974 -8.97466,2.96219 -1.93252,0.64245 -7.60942,2.52026 -12.61534,4.17291 -5.00591,1.65264 -12.74958,4.20984 -17.20814,5.68266 l -8.10648,2.67784 -1.16452,-0.38605 c -0.64049,-0.21232 -1.22167,-0.40747 -1.29152,-0.43365 -0.1288,-0.0483 6.31241,-2.22004 15.70567,-5.29543 5.01704,-1.6426 9.76647,-3.21194 25.06133,-8.28089 4.0513,-1.34267 11.4808,-3.79984 16.51,-5.46038 5.0292,-1.66053 13.16355,-4.34882 18.07633,-5.97395 4.91278,-1.62513 10.11343,-3.34143 11.557,-3.81399 1.44356,-0.47255 5.82506,-1.91913 9.73666,-3.21462 3.9116,-1.29549 11.20775,-3.70818 16.21367,-5.36154 9.17115,-3.02904 14.92363,-4.93035 19.60033,-6.47829 1.397,-0.4624 6.59765,-2.18014 11.557,-3.81721 4.95935,-1.63708 12.50315,-4.13152 16.764,-5.54319 4.26085,-1.41168 7.79092,-2.54303 7.84459,-2.5141 0.0943,0.0508 26.36023,26.19405 45.9615,45.74683 5.26226,5.24925 9.62477,9.59321 9.69447,9.65325 0.0697,0.0601 0.23885,0.23331 0.37592,0.38503 l 0.2492,0.27586 -0.33003,0.33798 c -0.18151,0.18588 -0.36991,0.33775 -0.41867,0.33748 -0.0487,0 -4.2987,-4.20272 -9.44432,-9.33878 z M -779.0971,133.9552 c -0.11282,-0.0887 -0.39961,-0.38585 -0.63732,-0.66024 l -0.43219,-0.49888 1.3751,-0.4428 c 2.97563,-0.95817 30.18189,-9.98739 30.47146,-10.11285 0.10752,-0.0466 0.25225,0.0905 0.6187,0.586 0.56204,0.75999 0.62449,0.8893 0.42946,0.8893 -0.0781,0 -2.94918,0.93017 -6.38023,2.06705 -5.66135,1.87589 -23.58498,7.79575 -24.75607,8.1765 -0.47352,0.15394 -0.48812,0.15386 -0.68891,-0.004 z m 78.75452,90.56273 29.88444,-29.89387 0.39087,-0.80434 c 0.98261,-2.02199 0.99454,-3.84387 0.0381,-5.82349 l -0.35664,-0.73817 -29.89345,-29.9085 c -16.4414,-16.44968 -29.93983,-29.9085 -29.99649,-29.9085 -0.14762,0 -0.0906,0.12272 0.80714,1.73567 5.20518,9.35251 9.45275,20.15982 12.11257,30.81866 1.60956,6.45004 2.42633,11.23023 3.09587,18.11867 0.79944,8.22502 0.90517,12.76337 0.46549,19.98133 -0.17079,2.80372 -0.66756,7.98524 -0.97408,10.16 -1.68211,11.93473 -4.84717,23.01779 -9.74042,34.10794 -1.25069,2.83459 -3.43157,7.2242 -4.90686,9.87639 -0.63463,1.14089 -1.18809,2.16212 -1.22994,2.26942 -0.076,0.19481 -0.0758,0.19488 0.17142,0.0489 0.13614,-0.0804 13.69551,-13.59845 30.13194,-30.04008 z m -250.91145,29.01296 c -0.0297,-0.0815 -0.50994,-0.98637 -1.06722,-2.01083 -6.39375,-11.75404 -11.01154,-24.7727 -13.30408,-37.50734 -1.13644,-6.31273 -1.40403,-8.5661 -1.95553,-16.46766 -0.0517,-0.74092 -0.18353,-1.48081 -0.19986,-1.12184 -0.005,0.10478 -0.0618,0.1905 -0.12669,0.1905 -0.12154,0 -6.21745,1.99546 -12.41265,4.06322 -1.93251,0.645 -6.02826,1.99823 -9.10166,3.00716 -8.10063,2.65927 -8.71534,2.87351 -8.75045,3.04977 -0.0209,0.10495 6.88002,7.06146 23.15633,23.34285 19.48082,19.4869 23.56233,23.53412 23.79729,23.59736 0.0102,0.003 -0.006,-0.0617 -0.0355,-0.14319 z m -43.71764,-49.75514 c 5.21851,-1.72879 21.50549,-7.10897 24.68461,-8.15423 1.21074,-0.39806 2.24896,-0.76143 2.30717,-0.80748 0.0829,-0.0656 0.10583,0.0684 0.10583,0.61809 0,0.386 0.0243,0.67752 0.054,0.64782 0.0719,-0.0719 0.0307,-6.20905 -0.0493,-7.34023 l -0.0629,-0.889 -0.0133,0.70756 c -0.012,0.63777 -0.0279,0.70159 -0.16144,0.64702 -0.34956,-0.14284 -7.99349,-2.7352 -18.4785,-6.2668 -1.83938,-0.61955 -5.38268,-1.81843 -7.874,-2.66418 -6.0874,-2.06654 -6.5024,-2.2026 -6.7185,-2.2026 -0.1342,0 -1.4762,1.29486 -4.7607,4.59317 -4.5338,4.553 -4.5769,4.59946 -4.9227,5.31283 -0.9621,1.98429 -0.9547,3.81155 0.024,5.842 l 0.3876,0.80434 5.3345,5.31283 c 3.7024,3.68735 5.38952,5.31283 5.51441,5.31283 0.099,0 2.18211,-0.66328 4.62922,-1.47397 z m 27.34572,-18.76136 c 0.0497,-1.09432 0.14871,-2.75167 0.21999,-3.683 0.17542,-2.29233 1.06834,-9.66836 1.42995,-11.81224 1.80298,-10.68953 4.99237,-21.1624 9.48626,-31.14965 0.70742,-1.57217 3.17499,-6.52401 4.08489,-8.19742 0.48726,-0.89612 0.86733,-1.67717 0.84461,-1.73567 -0.0442,-0.11385 -47.97095,47.76359 -48.14106,48.09155 -0.15048,0.29011 -2.49489,-0.53807 19.00025,6.71199 1.90924,0.64395 5.16679,1.74093 7.239,2.43772 2.07222,0.69678 4.08929,1.38504 4.48238,1.52947 0.39308,0.14442 0.80266,0.26258 0.91016,0.26258 0.1259,0 0.19903,0.0527 0.20547,0.14817 0.0333,0.4924 0.16081,-0.9022 0.2381,-2.6035 z M -777.53084,80.13356 c -0.14061,-0.174625 -13.50738,-13.562715 -29.70394,-29.751311 -27.47217,-27.458667 -29.4909,-29.457172 -30.08328,-29.781949 -1.29713,-0.71115 -2.75639,-0.988652 -4.06419,-0.772878 -0.82363,0.13589 -1.95214,0.559449 -2.53981,0.953253 -0.58814,0.394116 -59.1789,58.99662 -59.03836,59.050192 0.0557,0.02124 0.66532,-0.270517 1.35466,-0.648348 6.4178,-3.517579 15.32178,-7.325564 22.06391,-9.436125 9.45217,-2.958914 18.09996,-4.720166 27.02612,-5.504273 5.65547,-0.496796 7.57054,-0.576574 12.65767,-0.527288 5.20737,0.05045 6.69854,0.131148 12.065,0.65292 7.90866,0.768947 14.67423,2.062278 22.35199,4.272892 9.00598,2.593036 19.02206,6.760707 26.69427,11.107433 1.41695,0.802778 1.59828,0.860262 1.21596,0.385482 z m -65.24822,289.97092 c -2.68365,-0.49747 -4.97736,-1.52968 -6.90034,-3.10527 -0.30268,-0.248 -38.00761,-37.91467 -83.78874,-83.7037 -81.36566,-81.37968 -83.25196,-83.27355 -83.84086,-84.17548 -1.6506,-2.52826 -2.5684,-5.45528 -2.5779,-8.22131 -0.011,-3.30769 1.3117,-6.87224 3.5196,-9.48266 0.8664,-1.02433 166.15697,-166.26948 166.85724,-166.811402 2.34581,-1.815362 5.1457,-2.871369 8.13951,-3.069913 3.27772,-0.217371 6.34529,0.630191 9.238,2.552434 l 1.03749,0.689425 82.74895,82.727054 c 45.51193,45.499892 83.09147,83.108062 83.5101,83.573732 2.39704,2.66637 3.81968,6.31721 3.82713,9.82133 0.006,2.70047 -0.95504,5.76257 -2.5797,8.22175 -0.58734,0.88902 -1.80627,2.11969 -33.82821,34.15392 -95.67682,95.7135 -133.70323,133.68773 -134.31327,134.12898 -1.75801,1.27157 -3.73563,2.14891 -5.88434,2.61049 -1.23157,0.26457 -3.96734,0.31257 -5.16466,0.0906 z m 3.77907,-8.26672 c 0.7725,-0.20017 1.47349,-0.51077 2.10526,-0.9328 0.67318,-0.4497 60.12845,-59.89372 59.96666,-59.9553 -0.0574,-0.0218 -0.93369,0.42171 -1.94733,0.98568 -2.30747,1.28381 -6.59172,3.44439 -9.04878,4.56336 -10.54453,4.80209 -21.97348,8.2134 -33.52134,10.00547 -3.85605,0.5984 -10.11558,1.18259 -14.50935,1.35412 -4.02676,0.1572 -10.79763,0.033 -13.68219,-0.25101 -6.06891,-0.59752 -7.96508,-0.79874 -9.24321,-0.98089 -6.9999,-0.99758 -14.41615,-2.7226 -21.10979,-4.91014 -2.2883,-0.74784 -8.01644,-2.88092 -10.08515,-3.75557 -3.52307,-1.48956 -7.92195,-3.61149 -11.61201,-5.60139 -0.87386,-0.47123 -1.63586,-0.8389 -1.69334,-0.81702 -0.16195,0.0616 58.70006,58.91259 59.37383,59.36269 0.80154,0.53544 1.82928,0.93129 2.83633,1.09245 0.4433,0.0709 1.6124,-0.015 2.17041,-0.15965 z m -0.38992,-55.91722 c 1.35181,-0.0428 2.52249,-0.10262 2.60152,-0.13294 0.13835,-0.0531 6.21556,-6.20388 22.66644,-22.94088 9.39919,-9.56266 9.60982,-9.77686 22.00147,-22.37316 5.46285,-5.55308 9.94553,-10.0965 9.96152,-10.0965 0.0355,0 5.46039,1.82171 10.45756,3.51171 3.79914,1.28483 8.06048,2.72376 14.30867,4.83162 1.97908,0.66765 4.49146,1.51842 5.58307,1.89058 1.43486,0.48919 2.02494,0.65514 2.12986,0.599 0.29963,-0.16037 2.94531,-3.70576 4.64047,-6.21858 8.13278,-12.05556 14.07305,-26.07628 17.05915,-40.26438 1.22825,-5.83587 1.98813,-11.66661 2.34423,-17.98767 0.0916,-1.62604 0.0705,-1.98828 -0.11579,-1.98828 -0.0582,0 -3.74362,3.70322 -8.18988,8.22938 -4.44627,4.52616 -10.54157,10.72714 -13.54512,13.77995 -3.00355,3.05282 -9.86084,10.02713 -15.23844,15.49846 -14.12215,14.36833 -15.68501,15.95346 -15.78584,16.01078 -0.11188,0.0636 -1.16506,-0.27776 -1.16638,-0.37806 -10e-4,-0.0748 2.67267,-2.80334 24.48271,-24.98518 12.31825,-12.52825 25.4952,-25.93702 28.30055,-28.79844 l 1.33607,-1.36279 -10e-4,-3.33621 c -10e-4,-3.96542 -0.0645,-5.18331 -0.5083,-9.81323 -0.36699,-3.82885 -0.52998,-5.1312 -0.98013,-7.83166 -2.69104,-16.14334 -8.90311,-31.74031 -18.07482,-45.38133 -1.6228,-2.41359 -1.81993,-2.667 -2.07471,-2.667 -0.11912,0 -3.02381,0.93017 -6.45486,2.06705 -5.66135,1.87589 -23.58498,7.79575 -24.75607,8.1765 -0.47352,0.15394 -0.48813,0.15386 -0.68891,-0.004 -0.11282,-0.0887 -0.39961,-0.38585 -0.63732,-0.66024 l -0.43219,-0.49888 1.3751,-0.4428 c 1.32385,-0.42629 10.42786,-3.43735 23.85411,-7.88951 3.51578,-1.16583 6.459,-2.15532 6.5405,-2.19885 0.0815,-0.0435 0.14816,-0.11279 0.14816,-0.15391 0,-0.0411 -0.34164,-0.51544 -0.7592,-1.05406 -0.41757,-0.53864 -0.82554,-1.08468 -0.90659,-1.21345 -0.3174,-0.5042 -2.4435,-3.09429 -4.08416,-4.97544 -4.36881,-5.00928 -8.94381,-9.40902 -14.316,-13.76766 -15.18211,-12.317755 -33.96481,-20.744209 -53.467,-23.986822 -3.0417,-0.50574 -8.22981,-1.070265 -12.48833,-1.35887 -2.2943,-0.155488 -7.32546,-0.179079 -7.41465,-0.03477 -0.0579,0.09362 4.81265,4.976424 26.72045,26.787882 22.16561,22.06814 29.03811,28.94695 28.97625,29.00287 -0.14653,0.13248 -0.95458,0.34069 -1.0687,0.27536 -0.11655,-0.0667 -28.18965,-28.00675 -47.04466,-46.821684 -5.00628,-4.995626 -9.19313,-9.146569 -9.30413,-9.224317 -0.15987,-0.11198 -0.37971,-0.138593 -1.05769,-0.128049 -0.47073,0.0073 -1.04637,0.03269 -1.27921,0.05637 -0.23283,0.02368 -1.05198,0.0814 -1.82033,0.128256 -9.60329,0.585655 -18.0108,2.120782 -27.52674,5.026104 -4.64679,1.418713 -8.98925,3.118405 -14.93359,5.845187 -8.015,3.676627 -17.09902,9.482961 -24.46276,15.636113 -10.66787,8.91407 -19.27955,19.21547 -26.28692,31.44469 -1.2553,2.19075 -4.14328,7.88268 -5.12081,10.09265 -3.90717,8.83317 -6.62073,17.74698 -8.25542,27.11835 -0.47754,2.73769 -1.20592,8.84335 -1.4494,12.14966 -0.23262,3.15882 -0.25114,8.40661 -0.0302,8.56923 0.0766,0.0564 1.80092,0.66026 3.83177,1.34188 2.03085,0.68162 5.21645,1.75403 7.07912,2.38313 1.86266,0.62909 5.00591,1.69006 6.985,2.3577 1.97908,0.66764 5.57953,1.88554 8.00099,2.70645 4.41673,1.49733 7.16619,2.42741 14.01234,4.74004 7.23316,2.44336 10.50727,3.5488 14.05466,4.74527 1.97909,0.66751 5.52239,1.86636 7.874,2.6641 2.35162,0.79774 5.66632,1.91911 7.366,2.49193 1.69969,0.57282 6.27169,2.11791 10.16,3.43355 3.88832,1.31563 8.68892,2.9374 10.668,3.60393 1.97908,0.66653 5.52238,1.86409 7.874,2.66125 2.35162,0.79715 5.66632,1.91894 7.366,2.49287 1.69968,0.57393 4.69053,1.58463 6.64633,2.24601 4.8527,1.641 9.88278,3.34025 14.18167,4.79083 1.97908,0.66781 5.52238,1.86587 7.874,2.66238 5.97589,2.02407 9.61241,3.25428 13.88533,4.69733 2.02565,0.68411 5.26415,1.77784 7.19667,2.43051 1.93251,0.65268 5.13291,1.73321 7.112,2.40119 6.08927,2.05523 7.91344,2.67715 7.98847,2.72351 0.10044,0.0621 -1.05319,1.20924 -1.21605,1.20924 -0.0728,0 -0.68346,-0.18684 -1.35693,-0.41519 -2.16017,-0.73247 -14.73887,-4.98182 -18.32716,-6.19131 -1.90923,-0.64353 -5.39538,-1.82347 -7.747,-2.62208 -2.35161,-0.79862 -5.83776,-1.97875 -7.747,-2.62253 -1.90923,-0.64378 -6.53838,-2.20704 -10.287,-3.47392 -3.74861,-1.26687 -8.37776,-2.83024 -10.287,-3.47414 -1.90923,-0.6439 -5.39538,-1.82354 -7.747,-2.62142 -2.35161,-0.79787 -5.89491,-1.9968 -7.874,-2.66429 -1.97908,-0.66748 -6.60823,-2.23111 -10.287,-3.47472 -3.67876,-1.24361 -8.25076,-2.78769 -10.15999,-3.43128 -1.90924,-0.64359 -5.45254,-1.84152 -7.874,-2.66207 -2.42147,-0.82054 -5.96477,-2.01988 -7.874,-2.66521 -13.3355,-4.50745 -17.25681,-5.83204 -20.32,-6.86401 -1.90924,-0.64321 -5.45254,-1.84145 -7.874,-2.66278 -2.42147,-0.82131 -5.96477,-2.02086 -7.874,-2.66567 -1.90923,-0.64479 -6.48123,-2.189 -10.16,-3.43156 -15.53155,-5.24604 -15.15037,-5.12074 -15.25144,-5.01348 -0.23564,0.25008 0.33369,8.70527 0.82496,12.25166 1.44021,10.39656 3.86213,19.50397 7.61018,28.61734 4.75762,11.56813 11.13128,22.0082 19.15078,31.36899 4.61253,5.38402 10.47235,11.00843 16.19818,15.5475 7.82833,6.20578 16.89429,11.53758 26.71234,15.70987 1.40036,0.5951 6.80957,2.6083 8.72066,3.24566 5.98979,1.99763 13.03145,3.63376 19.64267,4.56398 2.42189,0.34076 8.98288,0.94131 11.21833,1.02685 1.21073,0.0463 2.29658,0.0967 2.413,0.112 0.41848,0.0549 1.43765,0.0471 3.85482,-0.0294 z m 102.06317,-124.57275 c -28.13934,-28.08703 -45.83345,-45.65363 -46.00864,-45.67707 -0.10415,-0.0139 -2.18684,0.63899 -4.62819,1.45096 -2.44136,0.81197 -6.95343,2.30357 -10.02683,3.31466 -3.0734,1.01111 -7.112,2.34543 -8.97467,2.96518 -1.86266,0.61975 -4.85351,1.60919 -6.64633,2.19877 -1.79281,0.58958 -5.88856,1.94259 -9.10166,3.00669 -3.2131,1.06411 -11.57605,3.82618 -18.58434,6.13795 -7.00828,2.31178 -15.14263,4.99825 -18.07633,5.96993 -2.9337,0.97169 -7.02945,2.32443 -9.10167,3.0061 -2.07221,0.68166 -5.29166,1.7473 -7.15433,2.36808 -1.86266,0.62077 -5.90126,1.95441 -8.97466,2.96363 -3.0734,1.00922 -7.16915,2.36282 -9.10167,3.00801 -1.93252,0.64518 -5.97112,1.9804 -8.97467,2.96715 -3.00355,0.98676 -7.04215,2.31974 -8.97466,2.96219 -1.93252,0.64245 -7.60942,2.52026 -12.61534,4.17291 -5.00591,1.65264 -12.74958,4.20984 -17.20814,5.68266 l -8.10648,2.67784 -1.16452,-0.38605 c -0.64049,-0.21232 -1.22167,-0.40747 -1.29152,-0.43365 -0.1288,-0.0483 6.31241,-2.22004 15.70567,-5.29543 5.01704,-1.6426 9.76647,-3.21194 25.06133,-8.28089 4.0513,-1.34267 11.4808,-3.79984 16.51,-5.46038 5.0292,-1.66053 13.16355,-4.34882 18.07633,-5.97395 4.91278,-1.62513 10.11343,-3.34143 11.557,-3.81399 1.44356,-0.47255 5.82506,-1.91913 9.73666,-3.21462 3.9116,-1.29549 11.20775,-3.70818 16.21367,-5.36154 9.17115,-3.02904 14.92363,-4.93035 19.60033,-6.47829 1.397,-0.4624 6.59765,-2.18014 11.557,-3.81721 4.95935,-1.63708 12.50315,-4.13152 16.764,-5.54319 4.26085,-1.41168 7.79092,-2.54303 7.84459,-2.5141 0.0943,0.0508 26.36023,26.19405 45.9615,45.74683 5.26226,5.24925 9.62477,9.59321 9.69447,9.65325 0.0697,0.0601 0.23885,0.23331 0.37592,0.38503 l 0.2492,0.27586 -0.33003,0.33798 c -0.18151,0.18588 -0.36991,0.33775 -0.41867,0.33748 -0.0487,0 -4.2987,-4.20272 -9.44432,-9.33878 z m -94.74199,124.2711 c 8.82579,-0.63709 17.18163,-2.22267 25.69633,-4.87611 21.22007,-6.61279 39.86403,-19.08379 54.22117,-36.26873 0.70027,-0.8382 1.27426,-1.59262 1.27553,-1.67648 0.001,-0.0935 -0.1042,-0.19641 -0.27287,-0.26597 -0.25993,-0.10721 -3.99864,-1.37568 -11.8745,-4.0288 -3.35386,-1.12981 -5.6521,-1.90558 -14.77433,-4.98715 -2.35162,-0.79439 -4.3019,-1.44456 -4.33395,-1.44481 -0.0321,0 -4.56596,4.58107 -10.07533,10.18072 -12.33401,12.53611 -13.11723,13.33262 -22.08322,22.45783 -3.98061,4.0513 -9.69413,9.86155 -12.69671,12.91166 -7.82948,7.95343 -7.79145,7.9143 -7.79145,8.01874 0,0.14126 0.17112,0.18681 0.55033,0.1465 0.18627,-0.0198 1.15782,-0.0951 2.159,-0.1674 z m 131.75346,-81.12343 29.85713,-29.8714 0.39087,-0.80434 c 0.98264,-2.02206 0.99455,-3.84422 0.038,-5.82349 l -0.35674,-0.73817 -29.80814,-29.82383 c -16.39448,-16.40311 -29.8369,-29.82384 -29.87204,-29.82384 -0.14587,0 -0.0244,0.27144 0.75505,1.68734 7.49113,13.60795 12.65229,29.17711 14.62481,44.11733 0.21257,1.61004 0.77998,7.31954 0.99708,10.033 0.14749,1.84336 0.14698,12.86393 -8.4e-4,14.64733 -0.50779,6.13327 -0.71912,8.19835 -1.122,10.96433 -1.10637,7.59582 -2.91947,15.18569 -5.32571,22.29411 -2.50529,7.40101 -5.6129,14.43641 -9.39382,21.26688 -0.51552,0.93133 -0.93732,1.74229 -0.93732,1.80214 0,0.0786 0.0412,0.0859 0.14817,0.0264 0.0815,-0.0453 13.58388,-13.52455 30.0053,-29.95382 z m -252.1751,26.87336 c -6.11634,-11.36444 -10.37659,-23.08637 -12.79347,-35.20071 -1.26138,-6.32255 -1.84789,-10.77021 -2.29916,-17.435 -0.074,-1.09283 -0.15295,-2.01675 -0.17546,-2.05317 -0.0225,-0.0364 -0.0918,-0.0662 -0.15395,-0.0662 -0.11725,0 -6.30346,2.02584 -12.40765,4.06322 -1.93251,0.645 -6.02826,1.99823 -9.10166,3.00716 -8.25741,2.71074 -8.7165,2.8713 -8.74397,3.05814 -0.0293,0.19943 46.62912,46.86686 46.69191,46.70092 0.0227,-0.0599 -0.4348,-0.99335 -1.01659,-2.07434 z m -42.4813,-47.59307 c 5.21851,-1.72879 21.50549,-7.10897 24.68461,-8.15423 1.21074,-0.39806 2.24896,-0.76143 2.30717,-0.80748 0.0806,-0.0638 0.10583,-0.71492 0.10583,-2.7343 0,-2.22258 -0.0201,-2.67074 -0.12481,-2.7754 -0.0687,-0.0687 -0.51633,-0.25822 -0.99484,-0.42128 -1.40463,-0.47864 -13.95161,-4.7185 -17.59168,-5.94456 -1.83938,-0.61955 -5.38268,-1.81843 -7.874,-2.66418 -6.08731,-2.06654 -6.50231,-2.2026 -6.71851,-2.2026 -0.1342,0 -1.4762,1.29486 -4.7607,4.59317 -4.5338,4.553 -4.5768,4.59946 -4.9227,5.31283 -0.9621,1.98429 -0.9546,3.81155 0.024,5.842 l 0.3876,0.80434 5.3345,5.31283 c 3.7024,3.68735 5.38953,5.31283 5.51442,5.31283 0.099,0 2.18211,-0.66328 4.62922,-1.47397 z m 27.12789,-16.82645 c 0.0299,-0.28623 0.0554,-0.8482 0.0566,-1.24883 0.001,-0.40063 0.0374,-1.09036 0.0804,-1.53275 0.043,-0.44238 0.13977,-1.64253 0.21503,-2.667 0.19284,-2.62497 1.07397,-9.82893 1.52229,-12.44599 1.67329,-9.76785 4.44086,-19.11526 8.42285,-28.448 1.3058,-3.06047 3.47886,-7.55269 4.9967,-10.32934 0.40729,-0.74506 0.76814,-1.44366 0.80189,-1.55243 0.0539,-0.17355 0.0422,-0.18729 -0.0948,-0.11221 -0.23483,0.12865 -47.74286,47.69325 -47.85823,47.91521 -0.14658,0.28203 -1.26695,-0.12445 11.88805,4.31306 4.54318,1.53252 9.36673,3.15835 14.732,4.96556 2.28177,0.76858 4.28202,1.45572 4.445,1.52697 0.16299,0.0713 0.39568,0.13104 0.51711,0.13286 0.20857,0.003 0.22378,-0.0255 0.27517,-0.51711 z M -807.10259,50.51965 c -27.60055,-27.591936 -29.62298,-29.594539 -30.21547,-29.919362 -2.03524,-1.115774 -4.30891,-1.111609 -6.35,0.01163 -0.36659,0.20174 -6.71194,6.500081 -29.82383,29.602913 -16.147,16.140658 -29.35817,29.377923 -29.35817,29.416145 0,0.1182 0.30778,-0.01883 1.42274,-0.633441 1.75411,-0.966935 6.49776,-3.283446 8.90659,-4.349439 4.35431,-1.926929 8.72377,-3.630411 11.98034,-4.670663 10.10577,-3.228104 19.16279,-5.077936 28.70199,-5.862187 5.90873,-0.485777 7.27469,-0.54072 12.10734,-0.486986 4.87438,0.0542 6.50143,0.144336 11.85333,0.656666 5.12262,0.490383 8.73233,1.037948 13.59234,2.061854 11.89281,2.505573 24.16036,7.056164 34.79466,12.906908 1.89596,1.043118 1.89942,1.044782 1.93633,0.934041 0.0178,-0.05326 -13.27893,-13.403898 -29.54819,-29.66808 z m -35.12614,319.70194 c -2.3701,-0.32614 -4.88033,-1.30366 -6.77333,-2.63764 -0.68695,-0.48408 -12.96532,-12.72683 -84.12881,-83.88468 -60.76863,-60.76381 -83.46363,-83.50796 -83.83843,-84.02008 -1.0465,-1.4297 -1.9595,-3.325 -2.4146,-5.0128 -0.4913,-1.82231 -0.6808,-3.93851 -0.469,-5.23957 0.465,-2.85646 1.1599,-4.737 2.5066,-6.7831 0.6349,-0.9646 1.4152,-1.74813 83.87873,-84.226442 45.78081,-45.789039 83.48549,-83.455704 83.78817,-83.703708 2.69653,-2.209396 6.31355,-3.396855 9.86367,-3.238219 2.82463,0.126218 5.12497,0.897129 7.70467,2.582067 0.80065,0.522949 5.38623,5.092353 84.38037,84.08282 81.04916,81.045382 83.55184,83.557282 84.14322,84.453072 1.36059,2.06094 2.09436,4.00572 2.50813,6.64747 0.50447,3.22088 -0.6439,7.4223 -2.85313,10.43841 -0.54228,0.74033 -16.43638,16.66042 -116.95526,117.14646 -54.55718,54.53936 -50.6508,50.70176 -52.69728,51.76948 -2.73223,1.42551 -5.8461,2.01143 -8.64372,1.62646 z m 3.06318,-8.3901 c 0.77071,-0.17529 1.64261,-0.53629 2.20622,-0.91345 0.54325,-0.36354 60.01912,-59.82574 59.83922,-59.82546 -0.0698,0 -0.46986,0.19359 -0.88896,0.42997 -12.5491,7.07795 -26.147,11.96605 -40.47066,14.5482 -6.61237,1.19202 -15.16317,1.94843 -22.098,1.9548 -4.10646,0.004 -7.28384,-0.17585 -12.78467,-0.72276 -5.28006,-0.52495 -8.09244,-0.93484 -12.40366,-1.80781 -7.36217,-1.49075 -12.77879,-3.05763 -20.02367,-5.79233 -5.81884,-2.19642 -10.76963,-4.46645 -15.99959,-7.33609 -0.68313,-0.37483 -1.30601,-0.68151 -1.38418,-0.68151 -0.19109,0 58.65821,58.84945 59.23573,59.23588 1.33458,0.89302 3.24593,1.25771 4.77222,0.91056 z m -0.15815,-55.9989 c 1.29509,-0.0457 2.42552,-0.12104 2.51208,-0.16737 0.19917,-0.10659 4.05215,-4.00751 20.3638,-20.61717 5.53347,-5.63456 11.13212,-11.33051 12.44144,-12.65766 1.30932,-1.32715 4.53205,-4.60331 7.16161,-7.28036 11.51217,-11.72003 14.58938,-14.81752 14.71863,-14.81566 0.14581,0.002 3.49568,1.11658 10.93274,3.63725 2.49132,0.84439 5.86317,1.9858 7.493,2.53647 1.62983,0.55067 4.62068,1.56168 6.64633,2.24669 6.74046,2.27943 7.14902,2.41494 7.28089,2.41494 0.0721,0 0.45411,-0.4278 0.84893,-0.95068 0.39482,-0.52287 0.85505,-1.1039 1.02274,-1.29116 0.64458,-0.71985 2.89015,-3.97077 4.56295,-6.60582 5.49211,-8.65138 9.95111,-18.42334 12.94234,-28.36334 1.60119,-5.32084 2.87691,-11.08948 3.68871,-16.67991 0.63209,-4.35293 1.23759,-12.36075 0.93463,-12.36075 -0.0859,0 -3.76069,3.71956 -18.11118,18.33196 -3.90921,3.98055 -8.21703,8.36132 -9.57294,9.73504 -1.3559,1.37371 -4.80546,4.87891 -7.66569,7.78933 -2.86024,2.91042 -7.41034,7.53957 -10.11135,10.287 -2.70101,2.74743 -5.45105,5.54594 -6.11121,6.21892 l -1.20027,1.22358 -0.64717,-0.20297 c -0.35595,-0.11162 -0.66836,-0.23724 -0.69426,-0.27914 -0.0259,-0.0419 0.59668,-0.72979 1.38351,-1.52863 2.28951,-2.32446 11.4284,-11.61931 16.57995,-16.86285 2.60712,-2.6537 5.73402,-5.83456 6.94865,-7.06858 1.21464,-1.23401 5.76808,-5.86308 10.11877,-10.28681 4.35069,-4.42372 9.95303,-10.11967 12.44965,-12.65767 2.49663,-2.53798 5.03912,-5.12887 5.64998,-5.75752 l 1.11066,-1.143 10e-4,-3.683 c 9.4e-4,-2.47031 -0.0399,-4.22661 -0.12417,-5.334 -0.22408,-2.94554 -0.71696,-7.78913 -0.97355,-9.56733 -2.13898,-14.82333 -7.41438,-29.60171 -15.2192,-42.63473 -1.53492,-2.56312 -4.41812,-6.93697 -4.94358,-7.49947 -0.2731,-0.29236 0.45918,-0.49556 -6.26076,1.73728 -2.86044,0.95043 -6.64859,2.20542 -8.41812,2.78886 -1.76954,0.58344 -6.39615,2.11312 -10.28137,3.39928 l -7.06402,2.33848 -0.69985,-0.69621 c -0.38492,-0.38292 -0.6816,-0.72573 -0.6593,-0.76182 0.0223,-0.0361 0.6395,-0.26052 1.37154,-0.49874 2.23334,-0.72675 18.67174,-6.16026 24.7625,-8.18493 3.53962,-1.17662 5.73616,-1.94756 5.73616,-2.01326 0,-0.0585 -0.36195,-0.57597 -0.80433,-1.14982 -0.44239,-0.57386 -0.80434,-1.07236 -0.80434,-1.10779 0,-0.13575 -2.31266,-2.96218 -3.97396,-4.85679 -3.74975,-4.27638 -6.7667,-7.29114 -11.01203,-11.00404 -9.4916,-8.301235 -20.66673,-15.158374 -32.42734,-19.897655 -8.82345,-3.555669 -18.53801,-6.16299 -27.26266,-7.31711 -1.81669,-0.240317 -7.11104,-0.749144 -9.35567,-0.899152 -2.01231,-0.134482 -7.493,-0.172441 -7.493,-0.0519 0,0.04023 8.01053,8.05021 17.80117,17.799949 26.47637,26.365778 37.99416,37.864888 37.99416,37.932548 0,0.0836 -1.06925,0.43242 -1.22087,0.39832 -0.11026,-0.0248 -14.3667,-14.19392 -43.90646,-43.637543 -12.06222,-12.022963 -12.5954,-12.548688 -12.78899,-12.610132 -0.19559,-0.06208 -4.90778,0.239787 -7.91201,0.506843 -8.10906,0.720839 -16.46089,2.444391 -24.80733,5.11944 -6.33809,2.031368 -14.48836,5.581945 -20.23533,8.815295 -19.10364,10.748057 -34.15439,25.814547 -44.70079,44.747537 -1.13783,2.04265 -3.70987,7.20013 -4.6417,9.3076 -3.76649,8.51844 -6.54382,17.67902 -8.09872,26.71233 -0.43593,2.53253 -1.21913,8.93813 -1.44929,11.85333 -0.13966,1.76889 -0.17612,2.93223 -0.1723,5.49762 0.003,1.9292 0.0375,3.28662 0.0851,3.33417 0.0441,0.0441 1.92122,0.69971 4.17132,1.45686 2.2501,0.75716 7.15814,2.41352 10.90676,3.68081 3.74861,1.26729 8.33966,2.81839 10.20233,3.44688 4.71803,1.59194 9.84533,3.32463 14.81666,5.00707 2.32834,0.78797 5.75734,1.94798 7.62,2.57781 1.86267,0.62982 6.45372,2.18244 10.20234,3.45029 3.74861,1.26784 8.43491,2.85042 10.414,3.51685 1.97908,0.66642 5.50333,1.85696 7.83166,2.64563 2.32834,0.78868 7.30039,2.47108 11.049,3.73866 6.40515,2.1659 8.74525,2.95636 17.31433,5.8486 1.90924,0.64441 5.39539,1.82363 7.747,2.62051 2.35162,0.79687 5.66632,1.91871 7.366,2.49299 10.30974,3.48336 15.17966,5.12811 20.828,7.03438 1.83939,0.62077 5.32553,1.80013 7.747,2.62079 2.42147,0.82065 5.79332,1.96169 7.493,2.53564 1.69968,0.57394 4.74768,1.60403 6.77333,2.28908 2.02565,0.68505 4.5974,1.55153 5.715,1.92551 1.1176,0.37398 2.069,0.71404 2.11423,0.7557 0.0512,0.0471 -0.17334,0.33131 -0.59414,0.75212 l -0.67637,0.67636 -1.01452,-0.34686 c -0.558,-0.19078 -2.51948,-0.85613 -4.35886,-1.47855 -1.83939,-0.62243 -5.32554,-1.80291 -7.747,-2.6233 -2.42147,-0.82039 -6.02192,-2.03758 -8.001,-2.70487 -1.97909,-0.66728 -6.60823,-2.23073 -10.287,-3.47431 -3.67877,-1.24359 -8.19362,-2.76906 -10.033,-3.38992 -1.83938,-0.62086 -5.38268,-1.81956 -7.874,-2.66378 -2.49132,-0.84422 -6.03462,-2.04285 -7.874,-2.66363 -1.83938,-0.62078 -6.35423,-2.14616 -10.033,-3.38973 -3.67877,-1.24358 -8.25077,-2.78766 -10.16,-3.43129 -1.90923,-0.64362 -5.50968,-1.86146 -8.001,-2.7063 -2.49131,-0.84484 -6.03461,-2.04355 -7.874,-2.66379 -1.83938,-0.62025 -6.35423,-2.14552 -10.033,-3.3895 -3.67876,-1.24398 -8.25076,-2.78823 -10.16,-3.43168 -1.90923,-0.64345 -5.45253,-1.84207 -7.874,-2.66359 -2.42146,-0.82151 -5.96476,-2.0205 -7.874,-2.66441 -1.90923,-0.64391 -6.48123,-2.18838 -10.16,-3.43215 -3.67876,-1.24378 -8.30791,-2.8072 -10.28699,-3.47428 -1.97909,-0.66708 -5.52239,-1.86585 -7.874,-2.66394 -9.17161,-3.11262 -11.30915,-3.82821 -11.47234,-3.8406 -0.1491,-0.0113 -0.17273,0.0478 -0.19782,0.49515 -0.0798,1.42203 0.57299,9.51349 1.00746,12.48833 0.27851,1.90697 0.98373,5.95193 1.35066,7.747 3.48896,17.06869 11.27335,33.78521 22.21699,47.70967 5.2971,6.73993 11.77781,13.25135 18.80271,18.8918 7.70057,6.18297 16.32392,11.34448 26.08455,15.61291 1.68811,0.73823 6.37407,2.53546 8.84045,3.39061 5.10057,1.7685 11.8743,3.46926 17.653,4.43236 4.72499,0.78749 12.95064,1.55201 17.22966,1.6014 0.48895,0.006 1.94862,-0.0272 3.2437,-0.0729 z m 105.36294,-121.03444 c -3.36471,-3.35369 -10.65128,-10.61107 -16.19239,-16.12752 -5.54111,-5.51644 -14.68511,-14.62339 -20.32,-20.23766 -12.95356,-12.90615 -12.73773,-12.69458 -12.94969,-12.69458 -0.0958,0 -2.63167,0.81627 -5.63522,1.81394 -5.19683,1.7262 -19.77061,6.54215 -27.22034,8.99507 -1.90923,0.62864 -5.10963,1.68895 -7.112,2.35626 -2.00236,0.66731 -6.09811,2.01994 -9.10166,3.00584 -3.00355,0.98591 -7.0993,2.33883 -9.10167,3.00649 -2.00237,0.66767 -5.10752,1.69559 -6.90033,2.28427 -1.79282,0.58869 -5.83142,1.92207 -8.97467,2.96309 -3.14325,1.04101 -11.3919,3.76531 -18.33033,6.05397 -6.93843,2.28866 -15.07278,4.97524 -18.07633,5.97016 -6.25581,2.07224 -22.0812,7.2994 -27.22034,8.99094 -1.90923,0.62843 -5.10963,1.68823 -7.112,2.35512 -2.00236,0.66688 -5.22181,1.73166 -7.15433,2.36615 -1.93251,0.6345 -5.93862,1.95896 -8.90245,2.94325 l -5.38879,1.78962 -1.29758,-0.44035 c -1.31107,-0.44494 -1.56002,-0.56446 -1.3375,-0.64217 0.066,-0.0231 4.34909,-1.43706 9.51799,-3.14225 5.1689,-1.70518 13.2461,-4.37084 17.94933,-5.92368 4.70323,-1.55285 8.91328,-2.93859 9.35567,-3.07941 0.44238,-0.14084 2.38548,-0.78754 4.318,-1.43711 1.93251,-0.64958 5.85681,-1.95115 8.72066,-2.89238 2.86385,-0.94123 8.46455,-2.79018 12.446,-4.10878 7.17412,-2.37595 16.68571,-5.51876 34.33233,-11.34407 5.0292,-1.66018 11.8872,-3.92648 15.24,-5.03622 9.06983,-3.00199 23.71974,-7.83937 27.09334,-8.94618 1.62983,-0.53471 4.77308,-1.57604 6.98499,-2.31405 2.21192,-0.73802 6.25052,-2.07189 8.97467,-2.96418 2.72415,-0.89228 6.93136,-2.28571 9.34936,-3.09651 2.41799,-0.81079 4.45525,-1.47416 4.52724,-1.47416 0.072,0 4.26582,4.12531 9.31964,9.16735 5.05382,5.04204 13.51311,13.47351 18.79843,18.73658 5.28531,5.26308 13.83876,13.78563 19.00766,18.93901 l 9.398,9.36978 -0.44403,0.44599 -0.44402,0.44599 z m -98.31964,120.78 c 4.21064,-0.32369 7.26407,-0.67545 10.32934,-1.18994 14.8784,-2.49726 29.00317,-7.78112 41.69833,-15.5987 9.49961,-5.8498 18.56895,-13.47554 25.74756,-21.64922 1.86301,-2.12125 3.5471,-4.17683 3.5471,-4.32955 0,-0.15805 0.27121,-0.058 -4.91066,-1.81119 -1.83939,-0.62232 -5.32554,-1.80328 -7.747,-2.62437 -4.2471,-1.44013 -7.71269,-2.60996 -15.06361,-5.08479 l -3.46426,-1.16631 -2.33541,2.36986 c -1.28446,1.30342 -4.37374,4.4436 -6.86506,6.97817 -2.49131,2.53458 -5.63641,5.73278 -6.9891,7.10713 -1.3527,1.37435 -3.52406,3.58466 -4.82526,4.91181 -2.38968,2.43735 -5.32125,5.41664 -10.20555,10.37167 -1.46886,1.49013 -4.9709,5.05248 -7.78229,7.91633 -6.62162,6.74515 -8.98062,9.14352 -11.5046,11.69658 -1.80938,1.83022 -2.18063,2.27677 -1.88936,2.27259 0.0322,-8.5e-4 1.0491,-0.077 2.25983,-0.17007 z m 131.92317,-81.13026 29.89927,-29.9085 0.38985,-0.80433 c 0.55316,-1.14125 0.68368,-1.70147 0.68053,-2.921 -0.002,-0.92113 -0.0283,-1.09111 -0.27789,-1.82034 -0.5781,-1.68927 1.97323,0.94851 -30.56611,-31.60186 -16.28119,-16.28671 -29.64859,-29.61218 -29.70533,-29.61217 -0.13764,5e-5 -0.0943,0.0996 0.54745,1.25778 6.92571,12.49841 11.86823,26.63817 14.19512,40.60992 0.58222,3.49597 0.97717,6.89359 1.44183,12.40367 0.31752,3.76531 0.38313,11.39691 0.13356,15.53633 -0.53335,8.84635 -1.64751,16.20394 -3.69083,24.3732 -2.60688,10.42242 -6.86153,21.15314 -12.15852,30.66521 -0.83918,1.50697 -0.94893,1.73059 -0.84933,1.73059 0.0336,0 13.51579,-13.45883 29.9604,-29.9085 z m -251.23526,28.74433 c -0.0296,-0.0815 -0.37685,-0.73871 -0.77171,-1.4605 -6.18575,-11.3073 -10.80302,-24.09574 -13.17518,-36.49133 -0.53396,-2.79015 -1.23548,-7.1921 -1.48423,-9.31333 -0.16819,-1.43421 -0.42008,-4.32031 -0.55423,-6.35 -0.17093,-2.58645 -0.19571,-2.79324 -0.34131,-2.84911 -0.0648,-0.0249 -4.20556,1.3077 -9.20157,2.9613 -4.99602,1.65361 -11.75981,3.889 -15.03065,4.96754 -3.27084,1.07856 -5.97143,2.00057 -6.00132,2.04893 -0.0508,0.0821 46.42034,46.63467 46.55308,46.63467 0.0335,0 0.0367,-0.0667 0.007,-0.14817 z m -45.02901,-48.99461 c 1.58498,-0.53209 5.11063,-1.69852 7.83478,-2.59206 2.72415,-0.89354 7.63905,-2.51733 10.922,-3.60843 3.28295,-1.0911 6.8489,-2.2683 7.92433,-2.61601 l 1.95533,-0.63219 0.0593,-2.48807 c 0.0326,-1.36844 0.0351,-2.5844 0.006,-2.70213 -0.0686,-0.27345 -0.01,-0.25026 -4.22945,-1.66973 -1.90924,-0.64228 -5.45254,-1.83963 -7.874,-2.6608 -2.42147,-0.82116 -5.96477,-2.01995 -7.874,-2.66398 -1.90924,-0.64403 -5.6894,-1.92032 -8.40037,-2.8362 -3.76652,-1.27248 -4.96462,-1.64566 -5.08002,-1.58221 -0.083,0.0457 -2.1173,2.05746 -4.5207,4.47065 -4.797,4.81663 -4.8073,4.82904 -5.3372,6.37727 -0.2494,0.72884 -0.2755,0.89971 -0.2782,1.82034 0,1.19494 0.1771,1.95036 0.7275,3.04321 0.3331,0.66141 0.5054,0.84339 5.6744,5.99495 2.932,2.92206 5.39346,5.31284 5.46995,5.31284 0.0765,0 1.43589,-0.43535 3.02086,-0.96745 z m 28.69227,-17.38405 c 0.0297,-0.31433 0.0542,-0.88805 0.0546,-1.27495 3.4e-4,-0.3869 0.0378,-0.9584 0.0833,-1.27 0.0455,-0.3116 0.14198,-1.4238 0.21442,-2.47155 0.13211,-1.9109 1.00286,-9.44713 1.32064,-11.43 1.46645,-9.1504 4.06852,-18.48829 7.58512,-27.22033 1.53598,-3.81399 4.22822,-9.52336 6.19958,-13.1473 0.33648,-0.61855 0.59409,-1.171 0.57246,-1.22766 -0.0348,-0.0912 -44.2172,44.05982 -46.73009,46.69684 -0.54716,0.5742 -0.99483,1.08639 -0.99483,1.13821 0,0.11608 0.61732,0.34057 4.60292,1.6739 1.72924,0.57851 5.04907,1.69743 7.37741,2.48651 2.32833,0.78908 7.24323,2.45227 10.922,3.69598 3.67876,1.2437 7.10776,2.40701 7.62,2.58511 0.51223,0.1781 0.97345,0.32673 1.02492,0.33028 0.0549,0.004 0.11593,-0.23003 0.14757,-0.56504 z m 190.14297,-106.934 c -0.34101,-0.467833 -58.655,-58.681621 -59.04132,-58.939873 -0.64657,-0.43223 -1.5716,-0.84006 -2.24544,-0.989974 -1.0016,-0.222836 -2.47751,-0.1394 -3.43182,0.194007 -0.40799,0.142536 -0.96044,0.386282 -1.22767,0.541658 -0.37444,0.217704 -7.19551,6.989879 -29.73822,29.525041 -16.08878,16.083398 -29.20933,29.259197 -29.15678,29.279555 0.0526,0.02036 0.70027,-0.289929 1.43934,-0.689524 4.9352,-2.66831 11.88884,-5.777527 17.21878,-7.699125 0.86148,-0.310589 1.69968,-0.615526 1.86266,-0.677637 0.61399,-0.233984 4.1883,-1.334252 6.30767,-1.941669 7.87496,-2.256989 15.58177,-3.706997 23.241,-4.37271 7.53535,-0.654946 13.28583,-0.754095 19.558,-0.337214 1.91754,0.12745 7.30641,0.645828 9.31333,0.895889 5.04146,0.628162 12.02979,2.066984 17.44133,3.590987 5.75082,1.61955 12.13663,3.94247 17.82286,6.483298 2.2768,1.017366 7.19032,3.466404 9.14347,4.557373 0.79164,0.442181 1.48955,0.805942 1.55094,0.808359 0.0773,0.003 0.0594,-0.06722 -0.0581,-0.228441 z m -64.32604,290.47339 c -2.16795,-0.1956 -4.93714,-1.26306 -6.97443,-2.68849 -0.69316,-0.48498 -12.265,-12.02016 -83.72243,-83.45725 -45.60496,-45.59197 -83.20454,-83.21834 -83.55474,-83.61415 -1.1942,-1.35003 -2.2255,-3.14685 -2.8503,-4.96624 -1.0753,-3.1312 -1.0116,-6.91544 0.1679,-9.96944 0.4705,-1.21838 1.2669,-2.67219 1.9809,-3.61625 0.5331,-0.70491 17.16769,-17.37848 83.96193,-84.158812 70.68086,-70.666145 83.41768,-83.364766 84.09337,-83.841137 1.58013,-1.114008 3.64004,-1.99771 5.6807,-2.437022 0.77356,-0.16653 1.14189,-0.191862 2.83634,-0.195073 2.09439,-0.004 2.48994,0.04283 4.02129,0.475753 1.63335,0.461759 2.87091,1.04141 4.44537,2.082127 0.79304,0.524197 6.13526,5.847963 84.33807,84.046702 70.75841,70.754712 83.57676,83.608122 84.05105,84.280912 1.99763,2.83361 2.91142,6.13917 2.67111,9.66248 -0.19704,2.88887 -1.22305,5.6123 -3.00829,7.98512 -0.40589,0.53948 -29.63249,29.80103 -116.82861,116.96829 -42.76232,42.74818 -50.3266,50.27472 -51.01166,50.75723 -1.6032,1.12917 -3.85155,2.09767 -5.80876,2.50218 -0.98512,0.2036 -3.24143,0.29562 -4.48881,0.18307 z m 3.26792,-8.7273 c 0.34798,-0.0973 0.93853,-0.33261 1.31233,-0.52283 0.67222,-0.34207 1.00437,-0.67042 30.3731,-30.0263 16.33139,-16.32425 29.67951,-29.6944 29.66247,-29.71143 -0.017,-0.017 -0.50128,0.23362 -1.07611,0.55701 -8.89489,5.00418 -19.16912,9.17287 -29.14795,11.82653 -7.01565,1.86566 -13.64355,3.07774 -20.11486,3.6785 -8.05967,0.74822 -13.69987,0.86579 -20.40466,0.42534 -1.54164,-0.10127 -8.49783,-0.78739 -9.906,-0.97707 -6.05292,-0.8153 -13.42979,-2.41651 -19.13467,-4.15332 -4.97917,-1.51587 -11.17694,-3.84115 -15.875,-5.95597 -1.81383,-0.81649 -6.43084,-3.10526 -8.19981,-4.06484 -0.78456,-0.4256 -1.44027,-0.76002 -1.45712,-0.74317 -0.0168,0.0168 13.19807,13.25349 29.36649,29.41475 29.10899,29.09612 29.4038,29.38752 30.07923,29.73126 0.59226,0.3014 1.43716,0.58616 2.15421,0.726 0.42408,0.0827 1.75136,-0.0319 2.36835,-0.20446 z m -0.24922,-57.54876 c 1.84948,-1.86458 6.98647,-7.08808 19.08836,-19.40984 4.09335,-4.16771 8.72099,-8.87307 10.28365,-10.45635 1.56266,-1.58329 3.96514,-4.02291 5.33886,-5.42139 1.37371,-1.39848 3.62207,-3.68447 4.99635,-5.07997 9.88741,-10.04014 12.66146,-12.89003 12.60344,-12.94805 -0.063,-0.063 -2.71466,-0.98352 -6.59313,-2.28888 -8.05969,-2.71263 -21.57084,-7.27612 -28.23633,-9.53706 -3.96656,-1.34547 -6.17534,-2.09201 -14.94366,-5.05076 -4.29781,-1.45024 -13.19812,-4.45873 -28.067,-9.48725 -2.46804,-0.83467 -9.07838,-3.06903 -14.68967,-4.96526 -12.58238,-4.25196 -15.67298,-5.29704 -21.42066,-7.24325 -2.49132,-0.84359 -6.03462,-2.04045 -7.874,-2.6597 -1.83939,-0.61925 -6.35424,-2.14408 -10.033,-3.38852 -3.67877,-1.24444 -8.30792,-2.80964 -10.287,-3.47824 -1.97908,-0.6686 -5.57953,-1.88691 -8.001,-2.70737 -7.51024,-2.54467 -18.67803,-6.30461 -18.726,-6.30461 -0.205,0 0.4573,8.92326 0.90805,12.23433 0.96438,7.08395 2.56361,14.11654 4.66897,20.53167 5.76638,17.57043 15.4913,33.33295 28.44527,46.10521 9.26085,9.13095 18.90145,15.96377 30.57355,21.66913 3.60534,1.76231 5.50258,2.57667 9.71382,4.16952 6.85881,2.59426 12.86604,4.27625 19.85433,5.55914 5.5218,1.01366 14.08663,1.85428 19.38643,1.90274 l 1.26776,0.0116 z m 7.3212,1.37173 c 7.82843,-0.57195 15.29432,-1.91634 23.06076,-4.1526 16.59749,-4.77905 32.21298,-13.44796 44.96645,-24.96305 1.68261,-1.51923 4.48468,-4.20352 5.76038,-5.51825 2.52903,-2.60641 7.04751,-7.84327 6.89017,-7.98561 -0.0931,-0.0842 -3.87952,-1.40154 -6.21343,-2.16167 -0.95461,-0.3109 -2.26906,-0.75159 -2.921,-0.97931 -0.65193,-0.22772 -4.19523,-1.42858 -7.874,-2.66859 -3.67876,-1.24001 -8.31882,-2.80429 -10.31123,-3.4762 -2.71635,-0.91603 -3.65886,-1.2011 -3.76766,-1.13953 -0.0798,0.0452 -0.52611,0.47457 -0.99177,0.95425 -0.46567,0.47967 -4.10529,4.18665 -8.08803,8.23773 -12.9834,13.20613 -21.70709,22.07873 -32.53489,33.09021 -5.85351,5.9528 -10.64275,10.86092 -10.64275,10.90693 0,0.0507 0.17515,0.0643 0.4445,0.0346 0.24448,-0.027 1.2446,-0.10749 2.2225,-0.17893 z m 85.0279,-48.23473 c 10.5217,-14.86221 17.32968,-31.91432 19.95232,-49.97508 0.54872,-3.77874 1.24447,-12.14909 1.00984,-12.14909 -0.0447,0 -1.92555,1.87643 -4.1797,4.16984 -2.25415,2.29341 -6.46213,6.57096 -9.35107,9.50567 -2.88894,2.93471 -7.25256,7.37336 -9.69694,9.86366 -2.44437,2.49031 -5.51313,5.61368 -6.81947,6.94083 -3.21631,3.26756 -12.53295,12.73843 -15.65812,15.91734 -1.39628,1.42028 -3.50586,3.55996 -4.68795,4.75483 -1.1821,1.19488 -2.1258,2.21049 -2.09711,2.25691 0.0287,0.0464 0.23309,0.14869 0.45423,0.22726 0.61001,0.21674 8.93899,3.04049 12.72107,4.3128 9.35356,3.14654 16.7138,5.64178 16.75078,5.67876 0.0228,0.0228 0.14647,0.0414 0.27483,0.0414 0.20625,0 0.36056,-0.17965 1.32729,-1.54517 z m 76.49786,-63.35498 c 1.01123,-1.9763 1.01415,-3.92265 0.009,-5.90436 l -0.39626,-0.78116 -29.49026,-29.50304 c -16.21963,-16.22667 -29.51389,-29.47939 -29.5428,-29.45049 -0.0289,0.0289 0.28756,0.67511 0.70322,1.43604 7.32202,13.40368 12.26744,28.31578 14.36789,43.32412 0.43951,3.14036 1.01683,9.62941 1.14498,12.86942 0.33164,8.38463 -0.25775,17.63933 -1.65881,26.04662 -2.32799,13.9695 -7.03886,27.5183 -13.9752,40.19364 -0.52821,0.96524 -0.96035,1.78439 -0.96031,1.82033 5e-5,0.036 13.38617,-13.32679 29.74695,-29.69497 27.93778,-27.95043 29.76541,-29.79657 30.05174,-30.35615 z m -282.6666,57.01184 c -4.85038,-9.0758 -8.58002,-18.63325 -11.11229,-28.47603 -1.42256,-5.52938 -2.7374,-12.85776 -3.2508,-18.11866 -0.22418,-2.29719 -0.51281,-6.04503 -0.51295,-6.66058 -9e-5,-0.53685 -0.0564,-0.74768 -0.19967,-0.74793 -0.10088,0 -1.27291,0.38436 -11.35744,3.72624 -3.3528,1.11107 -8.8392,2.92254 -12.192,4.02551 -3.3528,1.10296 -6.18929,2.04085 -6.30331,2.0842 -0.19485,0.0741 1.1789,1.46504 22.85644,23.14269 12.68507,12.68513 23.07815,23.04948 23.09573,23.03189 0.0176,-0.0176 -0.44308,-0.92089 -1.02371,-2.00733 z m 172.72308,-6.69553 c 1.52998,-1.54834 6.13184,-6.22511 10.22635,-10.39283 4.0945,-4.16772 9.73185,-9.90177 12.52742,-12.74233 2.79558,-2.84057 9.40577,-9.56522 14.68933,-14.94367 5.28355,-5.37845 10.76007,-10.94462 12.17005,-12.36927 1.40999,-1.42464 2.56361,-2.64608 2.56361,-2.71432 0,-0.0682 -1.17158,-1.28248 -2.6035,-2.69833 -2.28104,-2.25544 -32.76711,-32.6001 -47.47951,-47.25926 l -5.25202,-5.23301 -1.01331,0.34102 c -0.55733,0.18758 -4.25183,1.40977 -8.20999,2.71601 -3.95817,1.30624 -9.93987,3.28332 -13.29267,4.39353 -3.3528,1.1102 -10.15365,3.35835 -15.113,4.99588 -4.95935,1.63754 -13.11275,4.33031 -18.11866,5.98393 -5.00592,1.65363 -10.66377,3.52125 -12.573,4.15028 -1.90924,0.62902 -5.10964,1.68974 -7.112,2.35716 -2.00237,0.66741 -6.04097,2.0011 -8.97467,2.96375 -2.9337,0.96264 -7.02945,2.31533 -9.10166,3.00598 -2.07222,0.69065 -9.15882,3.03287 -15.748,5.20492 -6.58919,2.17207 -14.72354,4.85795 -18.07634,5.96865 -5.69362,1.88614 -19.67402,6.5035 -27.60133,9.11597 -7.14486,2.35462 -10.89287,3.63135 -10.89649,3.71181 -0.002,0.0456 1.64873,0.64082 3.66839,1.32264 2.01965,0.68183 6.62485,2.23826 10.23377,3.45874 3.60892,1.22048 8.18091,2.76587 10.16,3.43419 1.97908,0.66833 5.57953,1.88655 8.001,2.70716 2.42146,0.82062 5.96476,2.01836 7.874,2.66165 1.90923,0.64329 6.48123,2.18742 10.16,3.43141 3.67876,1.24398 8.25076,2.7894 10.16,3.43425 1.90923,0.64485 5.45253,1.84395 7.874,2.66466 2.42146,0.82072 5.96476,2.01842 7.874,2.66154 1.90923,0.64313 6.48123,2.18716 10.15999,3.43118 3.67877,1.24402 8.19362,2.77017 10.033,3.39147 1.83939,0.62129 5.38269,1.82021 7.874,2.66428 2.49132,0.84406 6.09177,2.06084 8.001,2.70397 1.90924,0.64313 6.48124,2.18741 10.16,3.43174 3.67877,1.24433 8.19362,2.77066 10.033,3.39186 1.83939,0.6212 5.38269,1.82013 7.874,2.66428 2.49132,0.84416 6.09177,2.06102 8.001,2.70414 6.50944,2.19268 16.76257,5.66377 17.35667,5.87591 0.32596,0.11639 0.61901,0.21446 0.65122,0.21793 0.0322,0.003 1.31036,-1.26053 2.84035,-2.80887 z m -212.8728,-44.0976 c 4.79668,-1.58736 12.35979,-4.08845 16.8069,-5.55797 4.44712,-1.46954 8.1333,-2.73077 8.1915,-2.80275 0.11627,-0.14377 0.15153,-2.01679 0.041,-2.18014 -0.0342,-0.0506 -0.19555,-0.14038 -0.35854,-0.19955 -0.44553,-0.16176 -8.2867,-2.82089 -12.23433,-4.14897 -1.90923,-0.64232 -6.48123,-2.18633 -10.16,-3.43116 -3.67876,-1.24482 -7.55656,-2.55456 -8.61731,-2.91052 l -1.92866,-0.64721 -4.4757,4.48702 -4.4758,4.48702 -0.43,0.889 c -0.5353,1.1068 -0.7135,1.83209 -0.707,2.87867 0.01,0.94749 0.272,1.97329 0.7572,2.91785 0.2754,0.53607 0.731,1.02239 4.5441,4.85031 2.3309,2.33998 4.2576,4.2545 4.2817,4.2545 0.024,0 3.96822,-1.29874 8.7649,-2.8861 z m 44.78924,-14.79786 c 3.81846,-1.26016 8.52381,-2.8211 10.45633,-3.46875 1.93252,-0.64765 4.67572,-1.54959 6.096,-2.00433 1.42028,-0.45474 6.27803,-2.05471 10.795,-3.5555 4.51696,-1.50079 11.58451,-3.84156 15.70566,-5.2017 4.12115,-1.36014 10.75055,-3.55146 14.732,-4.8696 3.98145,-1.31814 9.525,-3.14726 12.319,-4.0647 2.794,-0.91745 6.8326,-2.25288 8.97467,-2.96763 2.14206,-0.71475 5.24721,-1.74315 6.90033,-2.28533 3.41107,-1.11875 17.63447,-5.81519 26.924,-8.89005 3.42265,-1.13291 10.2616,-3.39328 15.19767,-5.02304 4.93606,-1.62976 13.08946,-4.32305 18.11866,-5.9851 5.0292,-1.66206 10.41083,-3.43987 11.95917,-3.95072 1.65699,-0.54668 2.81516,-0.97141 2.81516,-1.03238 0,-0.057 -1.3239,-1.41608 -2.94202,-3.02023 -1.61811,-1.60415 -11.5519,-11.48914 -22.07508,-21.96664 -30.0338,-29.903424 -31.29154,-31.153417 -31.4169,-31.223658 -0.14255,-0.07986 -4.58572,0.195147 -7.87033,0.487126 -8.07789,0.71807 -16.28705,2.407822 -24.68033,5.080139 -6.60913,2.104266 -15.0197,5.802338 -21.06843,9.263645 -7.93998,4.543551 -14.89843,9.617518 -21.38989,15.597098 -1.74113,1.60383 -5.26326,5.13851 -6.8672,6.89165 -5.95576,6.50983 -11.57025,14.33918 -15.78591,22.01333 -0.94224,1.71525 -3.69661,7.2311 -4.36805,8.74736 -3.87983,8.76163 -6.61042,17.69496 -8.20858,26.85498 -0.73122,4.1911 -1.54142,11.72115 -1.67949,15.60929 l -0.0477,1.34295 0.23178,-0.0435 c 0.12749,-0.0239 3.35599,-1.07454 7.17446,-2.3347 z m 222.54622,0.94113 c 0,-1.61197 -0.63494,-8.82801 -1.02123,-11.60903 -2.12347,-15.28762 -7.71066,-30.80833 -15.8682,-44.08047 -1.7999,-2.9284 -4.31498,-6.64633 -4.49607,-6.64633 -0.0566,0 -2.44025,0.77705 -5.29711,1.72678 -2.85686,0.94973 -6.54684,2.16992 -8.19996,2.71154 -8.56587,2.8065 -18.11866,6.00465 -18.11866,6.06591 0,0.0646 4.51632,4.57467 31.2838,31.2403 18.77009,18.69866 21.59008,21.4986 21.65403,21.50004 0.0349,8.4e-4 0.0635,-0.40815 0.0634,-0.90874 z m -242.10978,-2.159 c 0.0259,-0.19791 0.10591,-1.21708 0.17773,-2.26483 0.1578,-2.30216 1.03064,-9.67133 1.44409,-12.192 1.51888,-9.26022 4.40799,-19.24172 8.12862,-28.08324 1.325,-3.14868 1.83196,-4.23111 3.92809,-8.38693 1.10978,-2.20027 1.99259,-4.0005 1.9618,-4.0005 -0.10577,0 -45.22577,45.16956 -45.22577,45.27544 0,0.0582 0.01,0.10589 0.0214,0.10589 0.0118,0 1.20241,0.40243 2.64583,0.89429 1.44342,0.49185 4.18651,1.41993 6.09574,2.06239 4.83775,1.62792 16.47769,5.56475 18.669,6.31418 1.00118,0.3424 1.88467,0.62538 1.96331,0.62885 0.10585,0.005 0.15522,-0.0872 0.19013,-0.35354 z m 187.41282,-54.24638 c 1.09563,-0.37045 4.25901,-1.41721 7.02973,-2.32613 2.77071,-0.90892 7.60941,-2.50491 10.75266,-3.54664 3.14325,-1.04174 7.21491,-2.38479 9.04813,-2.98456 1.83321,-0.59977 3.35105,-1.13724 3.37298,-1.19437 0.0803,-0.20924 -3.25826,-4.18528 -6.27863,-7.47753 -5.94603,-6.48124 -13.66967,-12.959702 -21.52226,-18.0525 -13.91219,-9.022754 -30.34785,-15.174229 -46.42688,-17.37647 -4.29076,-0.587678 -13.12333,-1.266394 -13.12333,-1.008429 0,0.02997 0.33337,0.382559 0.74083,0.783534 0.79748,0.784794 32.8295,32.677455 46.0375,45.837215 5.12557,5.10685 8.10389,8.01494 8.21027,8.01669 0.0918,0.002 1.06337,-0.30036 2.159,-0.67081 z m -26.71349,-79.176811 c -16.01698,-16.020409 -29.35038,-29.292129 -29.62978,-29.49271 -1.75538,-1.260185 -3.82511,-1.55683 -5.82652,-0.835088 -1.34746,0.485918 0.40773,-1.22199 -30.64364,29.818074 -15.96073,15.954908 -29.0195,29.039094 -29.0195,29.075968 0,0.03688 0.54292,-0.223075 1.2065,-0.577666 6.41863,-3.429891 15.38787,-7.2318 21.54182,-9.13121 7.50099,-2.315174 13.84123,-3.766908 20.89734,-4.784896 4.80163,-0.692732 11.10077,-1.179366 16.17133,-1.249299 4.94389,-0.06818 8.26312,0.07739 13.88534,0.608982 5.08678,0.480966 8.30894,0.936306 12.573,1.776756 12.48674,2.461147 25.11021,7.035578 36.40534,13.192393 0.8142,0.443804 1.4984,0.788871 1.52045,0.766815 0.0221,-0.02206 -13.0647,-13.147709 -29.08168,-29.168119 z"
         inkscape:connector-curvature="0" />
    </g>
  </g>
</svg>
